# xmcd
#
# Track frame offsets: 
#        150
#        20140
#        40212
#        54912
#        66637
#        79335
#        90030
#        101880
#        112125
#        123822
#        133752
#        149102
#        159605
#        177867
#        190025
#
# Disc length: 2853 seconds
#
# Revision: 3
# Processed by: cddbd v1.5.2PL0 Copyright (c) Steve Scherf et al.
# Submitted via: ExactAudioCopy v1.3
#
DISCID=d80b230f
DTITLE=Leon Russell - Hank Wilson's Back! [1995 The Right Stuff]
DYEAR=1973
DGENRE=Country
TTITLE0=Roll In My Sweet Baby's Arms
TTITLE1=She Thinks I Still Care
TTITLE2=I'm So Lonesome I Could Cry
TTITLE3=I'll Sail My Ship Alone
TTITLE4=Jambalaya (On The Bayou)
TTITLE5=A Six Pack To Go
TTITLE6=The Battle Of New Orleans
TTITLE7=Uncle Pen
TTITLE8=Am I That Easy To Forget?
TTITLE9=Truck Drivin' Man
TTITLE10=The Window Up Above
TTITLE11=Lost Highway
TTITLE12=Goodnight Irene
TTITLE13=Hey Good Lookin'
TTITLE14=In The Jailhouse Now
EXTD=
EXTT0=
EXTT1=
EXTT2=
EXTT3=
EXTT4=
EXTT5=
EXTT6=
EXTT7=
EXTT8=
EXTT9=
EXTT10=
EXTT11=
EXTT12=
EXTT13=
EXTT14=
PLAYORDER=
